<?xml version="1.0" standalone="no"?>
<!DOCTYPE svg PUBLIC "-//W3C//DTD SVG 20010904//EN"
 "http://www.w3.org/TR/2001/REC-SVG-20010904/DTD/svg10.dtd">
<svg version="1.0" xmlns="http://www.w3.org/2000/svg"
 width="512.000000pt" height="512.000000pt" viewBox="0 0 512.000000 512.000000"
 preserveAspectRatio="xMidYMid meet">
<metadata>
Created by potrace 1.11, written by Peter Selinger 2001-2013
</metadata>
<g transform="translate(0.000000,512.000000) scale(0.100000,-0.100000)"
fill="#000000" stroke="none">
<path d="M2958 4325 c-31 -17 -34 -26 -152 -435 -47 -162 -110 -383 -141 -490
-31 -107 -58 -202 -60 -210 -2 -8 -18 -62 -35 -120 -18 -58 -33 -112 -35 -120
-2 -8 -25 -87 -50 -175 -26 -88 -67 -230 -92 -315 -25 -85 -56 -193 -70 -240
-13 -47 -27 -94 -30 -105 -20 -70 -80 -282 -136 -475 -36 -124 -113 -389 -171
-590 -58 -201 -112 -387 -120 -415 -32 -104 -16 -145 67 -170 174 -51 182 -52
208 -43 15 5 34 17 42 26 12 13 67 184 91 282 2 8 34 119 71 245 36 127 100
345 140 485 41 140 99 343 130 450 32 107 61 209 65 225 5 17 29 100 53 185
25 85 80 274 122 420 162 564 270 935 341 1179 41 140 74 267 74 282 0 51 -36
77 -150 109 -120 34 -126 34 -162 15z"/>
<path d="M666 3134 l-666 -666 0 -92 0 -91 663 -662 c364 -363 672 -664 685
-668 40 -12 86 16 172 107 137 143 189 64 -489 742 l-573 574 570 570 c594
594 599 600 571 654 -6 13 -51 62 -100 111 -142 140 -48 205 -833 -579z"/>
<path d="M3621 3713 c-100 -99 -115 -123 -107 -164 4 -21 160 -183 577 -600
l571 -572 -571 -571 c-646 -646 -615 -608 -545 -687 48 -52 67 -72 128 -128
85 -77 30 -122 783 631 l663 663 0 91 0 91 -652 652 c-358 359 -661 659 -672
667 -11 8 -36 14 -54 14 -29 0 -46 -13 -121 -87z"/>
</g>
</svg>
